<svg width="19" height="19" viewBox="0 0 19 19" fill="none" xmlns="http://www.w3.org/2000/svg">
<path fill-rule="evenodd" clip-rule="evenodd" d="M10.8458 1.31261C11.9107 0.22971 13.638 0.229044 14.7037 1.31113L17.1371 3.78186C18.1937 4.85471 18.2047 6.59154 17.1617 7.67809L8.0846 17.1342C7.38447 17.8635 6.42421 18.2748 5.42151 18.2748L2.73189 18.2747C1.46243 18.2746 0.448626 17.2001 0.502016 15.9114L0.617534 13.1228C0.65673 12.1767 1.04402 11.2799 1.70278 10.6101L10.8458 1.31261ZM13.6519 2.38064C13.1675 1.88878 12.3824 1.88908 11.8984 2.38131L10.2747 4.03242L14.4819 8.30436L16.0965 6.62238C16.5706 6.1285 16.5656 5.33903 16.0853 4.85137L13.6519 2.38064ZM2.75533 11.6788L9.22292 5.10193L13.4429 9.38678L7.01943 16.0785C6.59935 16.5161 6.02319 16.7629 5.42157 16.7628L2.73195 16.7627C2.3088 16.7627 1.97086 16.4045 1.98866 15.9749L2.10418 13.1864C2.12769 12.6187 2.36007 12.0807 2.75533 11.6788ZM17.756 18.2007C18.1669 18.2007 18.5 17.8623 18.5 17.4448C18.5 17.0272 18.1669 16.6888 17.756 16.6888H11.7266C11.3158 16.6888 10.9827 17.0272 10.9827 17.4448C10.9827 17.8623 11.3158 18.2007 11.7266 18.2007H17.756Z" fill="white"/>
</svg>
