<?xml version="1.0" encoding="UTF-8"?>
<svg id="_레이어_2" data-name="레이어 2" xmlns="http://www.w3.org/2000/svg" viewBox="0 0 411.04 242.47">
  <defs>
    <style>
      .cls-1 {
        fill: #d8bb9e;
      }

      .cls-2 {
        fill: #d64b34;
      }

      .cls-3 {
        fill: #256338;
      }

      .cls-4 {
        fill: #13193e;
      }

      .cls-5 {
        fill: #fff;
      }

      .cls-6 {
        fill: #eac324;
      }
    </style>
  </defs>
  <g id="_레이어_1-2" data-name="레이어 1">
    <g id="object">
      <g>
        <path class="cls-1" d="M26.77,199.93c-1.12,1.25-1.39,3.05-1.38,4.73,0,.66.09,1.42.64,1.79.37.25.84.25,1.28.24.53,0,1.07-.02,1.6-.03.24,0,.49-.01.69-.13.25-.15.38-.43.47-.7.35-1.09.21-2.27.05-3.41-.11-.77-.25-1.58-.74-2.18s-1.49-.86-2.06-.33l-.54.04Z"/>
        <path class="cls-1" d="M72.44,194.81c-1.12,1.25-1.39,3.05-1.38,4.73,0,.66.09,1.42.64,1.79.36.25.84.25,1.28.24.53,0,1.07-.02,1.6-.03.24,0,.49-.01.69-.13.25-.15.38-.43.47-.7.35-1.09.21-2.27.05-3.41-.11-.77-.25-1.58-.74-2.18s-1.49-.86-2.06-.33l-.54.04Z"/>
        <path class="cls-1" d="M110.67,185.26c-.83,1.46-.7,3.27-.34,4.91.15.64.4,1.37,1.01,1.61.41.16.87.06,1.3-.04.52-.12,1.04-.25,1.56-.37.23-.05.47-.12.65-.28.21-.2.28-.5.31-.79.11-1.14-.28-2.27-.68-3.34-.27-.73-.58-1.49-1.19-1.97s-1.63-.52-2.08.12l-.52.15Z"/>
        <path class="cls-1" d="M156.02,171.36c-.83,1.46-.7,3.27-.34,4.91.15.64.4,1.37,1.01,1.61.41.16.87.06,1.3-.04.52-.12,1.04-.25,1.56-.37.23-.05.47-.12.65-.28.21-.2.28-.5.31-.79.11-1.14-.28-2.27-.68-3.34-.27-.73-.58-1.49-1.19-1.97-.62-.48-1.63-.52-2.08.12l-.52.15Z"/>
        <path class="cls-1" d="M207.93,152.15c-.83,1.46-.7,3.27-.34,4.91.15.64.4,1.37,1.01,1.61.41.16.87.06,1.3-.04.52-.12,1.04-.25,1.56-.37.23-.05.47-.12.65-.28.21-.2.28-.5.31-.79.11-1.14-.28-2.27-.68-3.34-.27-.73-.58-1.49-1.19-1.97-.62-.48-1.63-.52-2.08.12l-.52.15Z"/>
        <path class="cls-1" d="M248.76,129.98c-.83,1.46-.7,3.27-.34,4.91.14.64.4,1.37,1.01,1.61.41.16.87.06,1.3-.04.52-.12,1.04-.25,1.56-.37.23-.05.47-.12.64-.28.21-.2.28-.5.31-.79.11-1.14-.28-2.27-.68-3.34-.27-.73-.58-1.49-1.19-1.97s-1.63-.52-2.08.12l-.52.15Z"/>
        <path class="cls-1" d="M290.92,102.99c-.83,1.46-.7,3.27-.34,4.91.14.64.4,1.37,1.01,1.61.41.16.87.06,1.3-.04.52-.12,1.04-.25,1.56-.37.23-.05.47-.12.64-.28.21-.2.28-.5.31-.79.11-1.14-.28-2.27-.68-3.34-.27-.73-.58-1.49-1.19-1.97-.61-.48-1.63-.52-2.08.12l-.52.15Z"/>
        <path class="cls-1" d="M315.87,84.71c-.04,1.68.92,3.22,2.02,4.49.43.5.99,1.02,1.65.94.44-.05.8-.36,1.13-.65.4-.35.8-.71,1.2-1.06.18-.16.36-.32.44-.55.09-.27.01-.57-.1-.84-.44-1.06-1.32-1.87-2.18-2.62-.58-.51-1.21-1.04-1.98-1.17-.77-.13-1.69.31-1.78,1.08l-.39.38Z"/>
        <path class="cls-1" d="M347.63,56.4c-.04,1.68.92,3.22,2.02,4.49.43.5.99,1.02,1.65.94.44-.05.8-.36,1.13-.65.4-.35.8-.71,1.2-1.06.18-.16.36-.32.44-.55.1-.27.01-.57-.1-.84-.44-1.06-1.32-1.87-2.18-2.62-.58-.51-1.21-1.04-1.98-1.17-.77-.13-1.69.31-1.78,1.08l-.39.38Z"/>
        <path class="cls-1" d="M379.15,26.3c-.04,1.68.92,3.22,2.02,4.49.43.5.99,1.02,1.65.94.44-.05.8-.35,1.13-.65.4-.35.8-.71,1.2-1.06.18-.16.36-.33.44-.55.1-.27.01-.57-.1-.84-.44-1.06-1.32-1.87-2.18-2.62-.58-.51-1.21-1.04-1.98-1.17s-1.69.31-1.78,1.08l-.39.38Z"/>
        <path class="cls-4" d="M395.8.67c-37.02,46.13-81.94,85.64-132.1,116.94-50.15,31.29-105.38,54.38-162.94,67.88-32.46,7.62-65.61,12.1-98.93,13.33-2.46.09-2.44,3.92.03,3.83,59.64-2.22,118.71-14.85,174.23-36.7,55.1-21.68,106.63-52.26,151.92-90.42,25.79-21.73,49.45-45.92,70.56-72.22,1.53-1.91-1.22-4.58-2.76-2.65Z"/>
        <path class="cls-2" d="M34.39,208.44c-2.65-2.84-6.26-5.02-9.76-2.6-2.76,1.91-5.05,4.85-6.89,7.62-2.58,3.91-3.47,8.44-2.23,13,1.19,4.4,3.35,8.53,6.23,12.06,2.34,2.86,4.53,5.28,8.22,3.16,6.73-3.87,9.55-14.99,8.98-22.17-.32-4.03-1.75-8.07-4.54-11.07Z"/>
        <path class="cls-5" d="M119.89,192.95c-3.2-2.2-7.2-3.55-10.1-.43-2.29,2.46-3.88,5.82-5.08,8.93-1.68,4.37-1.56,8.99.63,13.17,2.11,4.04,5.11,7.61,8.68,10.43,2.9,2.29,5.57,4.17,8.71,1.31,5.74-5.23,6.09-16.69,3.99-23.58-1.18-3.87-3.45-7.51-6.82-9.83Z"/>
        <path class="cls-5" d="M217.9,158.49c-3.37-1.92-7.47-2.93-10.1.41-2.07,2.64-3.38,6.13-4.31,9.32-1.31,4.5-.8,9.09,1.73,13.07,2.45,3.85,5.73,7.15,9.52,9.67,3.08,2.04,5.9,3.69,8.79.57,5.28-5.7,4.67-17.15,1.99-23.83-1.5-3.75-4.07-7.19-7.62-9.22Z"/>
        <path class="cls-2" d="M288.14,114.38c1.31-3.65,3.77-7.09,7.95-6.24,3.29.66,6.55,2.46,9.33,4.29,3.92,2.57,6.52,6.39,7.18,11.06.64,4.51.29,9.16-.96,13.54-1.02,3.55-2.08,6.64-6.31,6.14-7.71-.9-14.69-10-17-16.82-1.3-3.83-1.58-8.11-.19-11.96Z"/>
        <path class="cls-3" d="M349.42,66.15c-.24-3.87.66-8,4.82-8.88,3.28-.69,6.99-.33,10.27.24,4.62.81,8.51,3.29,10.97,7.31,2.37,3.89,3.89,8.29,4.48,12.81.47,3.67.71,6.92-3.36,8.14-7.44,2.23-17.45-3.36-22.27-8.72-2.71-3-4.66-6.82-4.92-10.91Z"/>
        <path class="cls-6" d="M74.01,200.89c-1.14,0-2.34.32-3.35.78-2.8,1.26-4.99,3.68-6.56,6.1-2.45,3.77-3.32,8.19-2.84,12.41.49,4.32,2.53,17.39,9.59,16.69,7.05-.7,12.13-10.2,13.09-15.67.01-.07.02-.13.03-.2,1.05-6.4-1.39-12.68-5.74-17.4-.84-.91-1.81-2.28-3.11-2.59-.36-.09-.74-.13-1.12-.13Z"/>
        <path class="cls-2" d="M409.8,50.96c.62-.96.97-2.16,1.13-3.25.43-3.04-.46-6.19-1.67-8.81-1.89-4.08-5.16-7.17-8.99-9.02-3.92-1.89-16.06-7.12-19.23-.77-3.16,6.34,2.17,15.7,6.29,19.43.05.04.1.09.15.13,4.86,4.3,11.47,5.57,17.78,4.41,1.22-.22,2.89-.32,3.85-1.25.27-.26.5-.55.7-.88Z"/>
        <path class="cls-3" d="M157.83,176.84c-1.06.43-2.05,1.19-2.81,1.99-2.12,2.22-3.23,5.3-3.77,8.13-.84,4.42.02,8.84,2.05,12.57,2.08,3.82,8.9,15.15,15.18,11.83,6.26-3.31,7.38-14.03,6.21-19.45-.01-.06-.03-.13-.04-.19-1.44-6.33-6.07-11.21-11.88-13.94-1.13-.53-2.53-1.43-3.85-1.22-.36.06-.73.16-1.08.3Z"/>
        <path class="cls-6" d="M252.32,134.65c1.1-.3,2.35-.29,3.44-.12,3.03.49,5.78,2.26,7.92,4.19,3.35,3.01,5.33,7.05,5.97,11.25.65,4.3,2.08,17.45-4.93,18.61-6.99,1.16-14.36-6.7-16.71-11.73-.03-.06-.05-.12-.08-.18-2.68-5.91-1.95-12.6,1.02-18.29.58-1.1,1.15-2.67,2.33-3.31.32-.18.68-.31,1.04-.41Z"/>
        <path class="cls-5" d="M320.7,88.33c.86-.76,1.98-1.3,3.04-1.62,2.94-.89,6.18-.5,8.96.29,4.33,1.24,7.88,3.99,10.3,7.49,2.47,3.58,9.52,14.76,3.74,18.88-5.77,4.11-15.85.29-20.17-3.21-.05-.04-.1-.08-.15-.12-5-4.13-7.28-10.47-7.11-16.88.03-1.24-.13-2.9.64-3.99.21-.3.47-.58.76-.83Z"/>
      </g>
    </g>
  </g>
</svg>