<?xml version="1.0" encoding="UTF-8"?>
<svg id="_레이어_2" data-name="레이어 2" xmlns="http://www.w3.org/2000/svg" viewBox="0 0 231.2 261.03">
  <defs>
    <style>
      .cls-1 {
        fill: #d64b34;
      }

      .cls-2 {
        fill: #1c542c;
      }

      .cls-3 {
        fill: #256338;
      }

      .cls-4 {
        fill: #fff;
      }

      .cls-5 {
        fill: #603129;
      }
    </style>
  </defs>
  <g id="_레이어_1-2" data-name="레이어 1">
    <g id="object">
      <g>
        <path class="cls-2" d="M193.12,128.72c1.21,1,2.97-.73,1.74-1.74-.74-.61-1.53-1.13-2.37-1.54.12-.97.14-1.95.01-2.86.24.14.49.27.73.41.73.43,1.6-.02,1.79-.81.26-1.07-.94-1.56-1.68-2.03-2.16-1.37-4.56-2.42-7.03-3.08-2.81-.75-5.72-.9-8.59-1.28-5.61-.73-11.23-.87-16.86-.49-.45-.58-1.25-.92-2.09-.49-1.21.62-1.58,1.41-2.15,2.63-1.26,2.66-2.4,5.85-3.21,8.67-1.27,4.41.8,5.77,4.42,7.91,4.82,2.85,9.85,5.33,15.03,7.45,1.86.76,3.65,1.66,5.55,2.28,1.45.47,2.99.92,4.48,1.38,1.08.34,3.34,1.7,4.19.53.43-.59.31-1.37-.37-1.71-.5-.25-1.01-.5-1.51-.75.69-.68,1.32-1.51,1.9-2.45.69.43,1.35.89,2,1.38.53.41,1.37.08,1.69-.44.38-.63.08-1.28-.44-1.68-.67-.51-1.35-.98-2.06-1.42.31-.64.6-1.3.88-1.96.66.36,1.34.7,2.04,1,1.44.62,2.7-1.5,1.24-2.13-.82-.35-1.62-.75-2.39-1.19.28-.79.54-1.56.78-2.29.42.25.82.53,1.2.83.53.41,1.22.51,1.74,0,.43-.42.52-1.33,0-1.74-.66-.51-1.32-1-2.05-1.41-.05-.03-.1-.05-.15-.08.15-.51.3-1.06.44-1.63.39.23.76.47,1.12.76Z"/>
        <path class="cls-4" d="M152.32,35.39c-.28-.22-.58-.42-.92-.61-.3-.19-.6-.34-.9-.48-18.51-9.84-42.64-9.34-59.46,3.78-15.94,12.43-20.09,36.18-16.87,55.31,3.94,23.38,27.74,31.33,48.74,32.9,22.08,1.65,38.41-12.62,46.23-32.25,8.36-20.98,2.32-46.01-16.82-58.65Z"/>
        <path class="cls-4" d="M193.25,188.16c-1.65-16.68-9.9-32.82-20.1-45.54-10.39-12.97-23.92-23.76-38.91-30.15-27.33-11.64-61.16-8.44-81.66,15.43-9.97,11.61-16.17,26.5-18.72,41.8-1.43,8.62-1.9,17.47-.69,26.14,1.22,8.73,4.55,16.93,9.21,24.26,8.94,14.09,21.84,25.9,36.64,32.73,16.1,7.43,34.24,9.69,51.63,7.26,16.4-2.29,32.77-8.62,44.69-21.01,10.16-10.56,16.55-24.72,17.9-39.64.34-3.76.32-7.52,0-11.28Z"/>
        <path class="cls-1" d="M184.5,29.3c-.27-4.28-.24-8.95-1.34-13.13-.83-3.15-3.36-4.51-6.67-4.9-4.58-.53-9.32-.49-13.93-.37-9.58.25-19.14,1.46-28.44,3.57-9.76,2.21-19.38,5.26-28.39,9.65-4.44,2.17-8.73,4.66-12.76,7.54-3.55,2.54-8.28,5.58-10.62,9.34-.25.41-.48.83-.67,1.27-.79,1.89-.78,4.45.75,5.98.12-.08.15-.16.28-.22,1.92,1.22,3.84,2.3,5.94,3.22,4.22,1.83,8.5,3.55,12.81,5.18,9.2,3.49,18.6,6.53,28.14,9.11,9.55,2.58,19.24,4.7,29.02,6.35,4.57.77,9.28,1.71,13.92,1.97,3.43.2,6.44-.8,8.17-3.67,4.44-7.39,4.03-17.67,4.15-25.84.07-5.02-.05-10.04-.37-15.05Z"/>
        <path class="cls-4" d="M193.18,7.61c.18-4.85-7.47-8.34-11.76-7.47-5.13,1.04-10.19,7.48-8.15,12.73,1.61,4.14,8.77,8.7,13.25,7.57,4.84-1.22,7.44-8.11,6.66-12.83Z"/>
        <path d="M92.73,70.61v.34c-.02.58.1,1.11.36,1.61.17.52.46.97.86,1.34.38.41.83.7,1.34.86.5.26,1.03.38,1.61.36,1.08-.05,2.2-.4,2.95-1.22.75-.82,1.22-1.82,1.22-2.95v-.34c.02-.58-.1-1.11-.36-1.61-.17-.52-.46-.97-.86-1.34-.38-.41-.83-.7-1.34-.86-.5-.26-1.03-.38-1.61-.36-1.08.05-2.2.4-2.95,1.22-.75.82-1.22,1.82-1.22,2.95h0Z"/>
        <path d="M129.61,77.13v-.34c.02-.58-.1-1.11-.36-1.61-.17-.52-.46-.97-.86-1.34-.38-.41-.83-.7-1.34-.86-.5-.26-1.03-.38-1.61-.36-1.08.05-2.2.4-2.95,1.22-.75.82-1.22,1.82-1.22,2.95v.34c-.02.58.1,1.11.36,1.61.17.52.46.97.86,1.34.38.41.83.7,1.34.86.5.26,1.03.38,1.61.36,1.08-.05,2.2-.4,2.95-1.22.75-.82,1.22-1.82,1.22-2.95h0Z"/>
        <path class="cls-1" d="M101.24,79.25v.43c-.03.85.15,1.64.53,2.37.25.76.67,1.42,1.27,1.98.56.6,1.22,1.03,1.98,1.27.73.39,1.53.56,2.37.53.55-.07,1.09-.15,1.64-.22,1.04-.29,1.95-.82,2.72-1.58,1.11-1.21,1.8-2.69,1.8-4.35v-.43c.03-.85-.15-1.64-.53-2.37-.25-.76-.67-1.42-1.27-1.98-.56-.6-1.22-1.03-1.98-1.27-.73-.39-1.53-.56-2.37-.53-.55.07-1.09.15-1.64.22-1.04.29-1.95.82-2.72,1.58-1.11,1.21-1.8,2.69-1.8,4.35h0Z"/>
        <path d="M126.5,90.48c-2.05-1.46-3.33-3.82-3.52-6.31-.15-1.97-3.23-1.93-3.08.05.08,1.06.3,2.07.63,3.03-3.97,3.21-9.17,3.88-13.92,2.12-1.86-.69-2.61,2.3-.77,2.98,5.5,2.04,11.41,1.06,16.07-2.32.81,1.19,1.82,2.24,3.05,3.12,1.61,1.15,3.14-1.53,1.54-2.67Z"/>
        <path class="cls-3" d="M163.94,108.07c-2.66-1.3-6.67-2.1-8.13-2.45-4.2-.99-8.48-1.56-12.74-2.25-8.23-1.34-16.51-2.38-24.82-3.1-11.52-1.01-23.02-1.27-34.56-1.49-1.96-.04-3.92-.09-5.88-.14-1.47-.04-2.93-.3-4.27.45-3.24,1.82-6.21,5.57-8.3,8.56-1.84,2.63-5.06,7.09-3.83,10.45,1.44,3.93,7.73,3.98,11.11,4.64,5.23,1.01,10.49,1.87,15.77,2.6,20.65,2.89,41.47,3.98,62.29,4.82,3.96.16,11.11,1.89,13.46-2.45,1.15-2.12,1.01-5.11,1.28-7.47.37-3.13.74-6.26,1.11-9.39.13-1.11-.96-2.03-2.5-2.79Z"/>
        <path class="cls-5" d="M181.54,167.6c16.11-5.67,31.98-12.02,47.58-18.98,4.7-2.09.63-9-4.04-6.91-14.97,6.68-30.21,12.72-45.67,18.17-4.83,1.7-2.75,9.44,2.13,7.72h0Z"/>
        <path class="cls-5" d="M1.15,112.81c13.31,13.68,28.41,25.54,44.84,35.26,4.45,2.63,8.48-4.29,4.04-6.91-15.88-9.39-30.36-20.79-43.22-34.01-3.6-3.7-9.26,1.97-5.66,5.66h0Z"/>
        <path d="M93.43,147.27v.43c-.05,1.27.22,2.46.8,3.56.37,1.15,1.01,2.14,1.91,2.97.84.9,1.83,1.54,2.97,1.91,1.1.58,2.29.84,3.56.8.82-.11,1.64-.22,2.46-.33,1.56-.44,2.92-1.23,4.08-2.38.48-.62.96-1.25,1.44-1.87.84-1.44,1.26-2.99,1.26-4.66v-.43c.05-1.27-.22-2.46-.8-3.56-.37-1.15-1.01-2.14-1.91-2.97-.84-.9-1.83-1.54-2.97-1.91-1.1-.58-2.29-.84-3.56-.8-.82.11-1.64.22-2.46.33-1.56.44-2.92,1.23-4.08,2.38-.48.62-.96,1.25-1.44,1.87-.83,1.44-1.26,2.99-1.26,4.66h0Z"/>
        <path d="M97.5,191.37c4.83,0,9.46-4.25,9.24-9.24-.22-5.01-4.06-9.24-9.24-9.24-4.83,0-9.46,4.25-9.24,9.24.22,5,4.06,9.24,9.24,9.24h0Z"/>
      </g>
    </g>
  </g>
</svg>